<svg width="307" height="98" viewBox="0 0 307 98" fill="none" xmlns="http://www.w3.org/2000/svg">
<path d="M288.58 16.3334H18.4199V81.6667H288.58V16.3334Z" fill="#FCE4A8"/>
<path d="M282.44 12.25H24.5601V16.3333H282.44V12.25Z" fill="#7D3C1A"/>
<path d="M282.44 81.6666H24.5601V85.75H282.44V81.6666Z" fill="#7D3C1A"/>
<path d="M24.56 8.16663H12.28V12.25H24.56V8.16663Z" fill="#7D3C1A"/>
<path d="M12.28 12.25H9.20996V85.75H12.28V12.25Z" fill="#7D3C1A"/>
<path d="M24.56 12.25H21.49V85.75H24.56V12.25Z" fill="#7D3C1A"/>
<path d="M24.56 85.75H12.28V89.8333H24.56V85.75Z" fill="#7D3C1A"/>
<path d="M21.49 12.25H12.28V85.75H21.49V12.25Z" fill="#E0AB7A"/>
<path d="M18.4201 12.25H15.3501V85.75H18.4201V12.25Z" fill="#FCE4A8"/>
<path d="M12.28 8.16663H9.20996V12.25H12.28V8.16663Z" fill="#7D3C1A"/>
<path d="M27.6301 8.16663H24.5601V12.25H27.6301V8.16663Z" fill="#7D3C1A"/>
<path d="M12.28 85.75H9.20996V89.8333H12.28V85.75Z" fill="#7D3C1A"/>
<path d="M27.6301 85.75H24.5601V89.8333H27.6301V85.75Z" fill="#7D3C1A"/>
<path d="M294.72 8.16663H282.44V12.25H294.72V8.16663Z" fill="#7D3C1A"/>
<path d="M282.44 12.25H279.37V85.75H282.44V12.25Z" fill="#7D3C1A"/>
<path d="M297.79 12.25H294.72V85.75H297.79V12.25Z" fill="#7D3C1A"/>
<path d="M294.72 85.75H282.44V89.8333H294.72V85.75Z" fill="#7D3C1A"/>
<path d="M294.72 12.25H282.44V85.75H294.72V12.25Z" fill="#E0AB7A"/>
<path d="M291.65 12.25H288.58V85.75H291.65V12.25Z" fill="#FCE4A8"/>
<path d="M282.44 8.16663H279.37V12.25H282.44V8.16663Z" fill="#7D3C1A"/>
<path d="M297.79 8.16663H294.72V12.25H297.79V8.16663Z" fill="#7D3C1A"/>
<path d="M282.44 85.75H279.37V89.8333H282.44V85.75Z" fill="#7D3C1A"/>
<path d="M297.79 85.75H294.72V89.8333H297.79V85.75Z" fill="#7D3C1A"/>
<path opacity="0.3" d="M30.7001 16.3334H24.5601V81.6667H30.7001V16.3334Z" fill="#D2966D"/>
<path opacity="0.3" d="M279.37 16.3334H276.3V81.6667H279.37V16.3334Z" fill="#D2966D"/>
</svg>
